<svg width="647" height="647" viewBox="0 0 647 647" fill="none" xmlns="http://www.w3.org/2000/svg">
<path d="M364.6 518C364.6 518 377.1 461 389.6 403C402.1 345 456.1 342 484.6 388.5L476.6 365.5C515.642 406.234 526.295 432.731 528.1 482L534.6 457.5C543.166 479.959 541.196 493.474 534.6 518C577.887 459.784 589.892 424.552 552.6 368.5C558.85 368.293 562.653 369.682 569.6 373C533.797 329.902 508.45 316.677 454.6 311C472.621 300.33 488.004 301.04 518.6 316C512.598 307.609 508.113 302.993 497.1 295C534.066 292.728 557.843 300.309 608.6 335C598.977 321.586 592.847 314.798 579.6 305C607.604 314.109 621.22 325.797 642.1 346C641.45 356.606 640.747 363.02 639.1 375C634.311 404.141 629.48 420.235 618.1 448C608.301 470.229 601.48 482.173 588.1 503C570.822 525.741 560.091 537.821 539.6 558.5C522.994 574.128 512.006 582.621 487.6 597C463.515 611.734 449.052 618.392 421.6 627.5C384.605 637.298 364.084 640.501 327.936 641.5L364.6 518Z" fill="white"/>
<path d="M643.6 328.5C595.122 261.981 568.128 244.039 520.1 243C526.632 236.902 531.6 235.156 541.6 233.5C486.426 219.018 463.924 227.133 433.6 260.5C450.344 227.392 461.743 211.69 494.6 201.5C488.754 194.59 483.752 192.69 471.6 193C486.439 162.067 498.517 151.47 528.1 147C498.174 120.549 477.983 119.989 427.6 155C428.278 146.228 429.455 141.241 435.6 132C409.377 142.348 396.381 174.218 389.1 220C368.381 111.854 346.887 70.5147 283.1 46.5C295.704 55.4786 300.691 60.5139 306.6 69.5C245.307 38.7439 214.007 35.8408 162.1 49C186.492 34.5098 201.648 27.7674 231.1 18C263.226 9.63303 282.219 6.33424 318.6 4C355.83 4.16858 376.108 7.21778 411.6 16C446.853 27.4711 465.581 36.3608 497.6 55.5C531.023 78.0171 547.521 92.53 572.1 122.5C591.764 148.05 600.744 163.306 614.6 191.5C629.645 223.306 633.668 241.646 639.6 274.5C642.97 296.777 643.46 308.346 643.6 328.5Z" fill="white"/>
<path d="M279.6 639.5C309.282 579.16 324.314 544.842 344.1 481.5C353.487 443.779 357.92 422.833 361.6 386.5C355.385 355.694 346.669 340.947 307.6 326C277.706 319.542 263.737 321.126 242.6 331C251.062 320.609 256.559 316.081 268.1 311C219.404 302.86 192.263 303.783 144.6 331C153.855 318.12 159.697 312.098 172.1 305C139.239 298.165 120.235 302.207 85.6 319.5C110.069 286.482 139.492 263.415 212.1 250C202.815 242.9 195.39 240.047 180.1 236C240.757 230.498 276.108 245.42 330.1 299.5C302.511 259.029 276.633 240.443 204.6 217.5C212.356 210.406 217.308 207.805 227.6 206.5C197.856 190.058 179.949 184.728 144.6 186C163.5 170.683 175.777 163.214 216.6 162.5C257.779 167.573 277.59 180.844 310.1 213.5L301.6 195.5C324.546 208.312 334.157 221.499 348.6 250C341.715 220.532 337.169 204.428 317.1 183C299.979 164.894 289.868 155.592 266.1 148.5C283.991 146.641 294.701 148.319 314.6 154.5C258.7 115.914 230.063 104.398 184.1 103C191.997 94.3186 197.251 90.3429 210.1 87C188.694 70.7931 175.701 63.3391 148.6 56.5C117.75 77.5176 100.636 92.8869 70.6 130C50.6968 153.784 40.7223 170.525 26.1 209.5C10.963 248.481 6.67325 271.091 5.1 312.5C4.44388 354.234 6.74799 377.654 20.1 419.5C30.4941 450.765 39.5031 469.083 60.6 503C83.5563 536.018 100.269 552.742 135.6 580C155.731 594.899 168.961 602.568 196.1 615C226.893 627.302 245.145 632.712 279.6 639.5Z" fill="white"/>
</svg>
